<svg height="20" viewBox="0 0 20 20" width="20" xmlns="http://www.w3.org/2000/svg"><path d="m0 0h20v20h-20z" fill="#fff"/><rect fill="#747474" height="15.303" rx="1.217" width="16" x="1.797" y="3.296"/><path d="m0 0h14.089a0 0 0 0 1 0 0v9.147a.695.695 0 0 1 -.695.695h-12.555a.839.839 0 0 1 -.839-.842v-9a0 0 0 0 1 0 0z" fill="#fff" transform="translate(2.753 7.856)"/><g fill="#747474"><rect height="1.91" rx=".347" width="1.91" x="4.545" y="8.91"/><rect height="1.91" rx=".347" width="1.91" x="7.41" y="8.91"/><rect height="1.91" rx=".347" width="1.91" x="10.275" y="8.91"/><rect height="1.91" rx=".347" width="1.91" x="13.139" y="8.91"/><rect height="1.91" rx=".347" width="1.91" x="4.545" y="11.775"/><rect height="1.91" rx=".347" width="1.91" x="10.275" y="11.775"/><rect height="1.91" rx=".347" width="1.91" x="13.139" y="11.775"/><rect height="1.91" rx=".347" width="1.91" x="4.545" y="14.735"/><rect height="1.91" rx=".347" width="1.91" x="7.41" y="14.735"/><rect height="1.91" rx=".347" width="1.91" x="10.275" y="14.735"/><rect height="1.91" rx=".347" width="1.91" x="7.41" y="11.763"/></g><circle cx="5.638" cy="4.862" fill="#fff" r=".97"/><rect fill="#747474" height="4.095" rx=".627" width="1.254" x="5.011" y="1.401"/><circle cx="13.665" cy="4.862" fill="#fff" r=".97"/><rect fill="#747474" height="4.095" rx=".627" width="1.254" x="13.038" y="1.401"/></svg>