<svg enable-background="new 0 0 35.2 32" viewBox="0 0 35.2 32" xmlns="http://www.w3.org/2000/svg"><g fill="#fff"><path d="m30.1 0h-25c-2.2 0-4.1 1.9-4.1 4.2v23.7c0 2.2 1.9 4.1 4.1 4.1h24.9c2.3 0 4.2-1.9 4.2-4.2v-23.6c0-2.3-1.8-4.2-4.1-4.2zm-26.3 27.8v-23.6c0-.8.6-1.4 1.4-1.4h11.1v26.4h-11.1c-.8 0-1.4-.6-1.4-1.4zm27.7 0c0 .8-.6 1.4-1.4 1.4h-11.1v-26.4h11.1c.8 0 1.4.6 1.4 1.4z"/><path d="m6.5 9.7h6.9v1.4h-6.9z"/><path d="m6.5 15.3h6.9v1.4h-6.9z"/><path d="m6.5 20.9h6.9v1.4h-6.9z"/><path d="m21.8 9.7h6.9v1.4h-6.9z"/><path d="m21.8 15.3h6.9v1.4h-6.9z"/><path d="m21.8 20.9h6.9v1.4h-6.9z"/></g></svg>