<svg enable-background="new 0 0 20 20" viewBox="0 0 20 20" xmlns="http://www.w3.org/2000/svg"><g fill="#fff"><path d="m13 9.1c.5.3.6.9.3 1.4-.1.1-.2.3-.3.3l-5 3c-.5.3-1.1.1-1.4-.4-.1-.2-.1-.3-.1-.5v-5.9c0-.6.4-1 1-1 .2 0 .4 0 .5.1zm-4.5-.3v2.5l2.1-1.2z"/><path d="m18 16v-12h-16v12zm.6 2h-17.2c-.8 0-1.4-.7-1.4-1.6v-12.8c0-.9.6-1.6 1.4-1.6h17.1c.9 0 1.5.7 1.5 1.6v12.8c0 .9-.6 1.6-1.4 1.6z"/><path d="m3.4 4.1c0-.4.4-.7 1-.7s1 .3 1 .7v11.7c0 .4-.4.7-1 .7s-1-.3-1-.7z"/><path d="m14.6 4.1c0-.4.4-.7 1-.7s1 .3 1 .7v11.7c0 .4-.4.7-1 .7s-1-.3-1-.7z"/><path d="m18.8 6.5c.4 0 .8.4.8 1s-.3 1-.8 1h-3c-.4 0-.8-.4-.8-1s.3-1 .8-1z"/><path d="m18.8 11.8c.4 0 .8.4.8 1s-.3 1-.8 1h-3c-.4 0-.8-.4-.8-1s.3-1 .8-1z"/><path d="m4.2 6.4c.5 0 .8.4.8 1s-.4 1-.8 1h-3.4c-.4 0-.8-.5-.8-1s.4-1 .8-1z"/><path d="m4.2 11.6c.5 0 .8.4.8 1s-.4 1-.8 1h-3.4c-.5 0-.8-.4-.8-1s.4-1 .8-1z"/></g></svg>