<svg height="175.231" viewBox="0 0 246.811 175.231" width="246.811" xmlns="http://www.w3.org/2000/svg"><g fill="#949494"><path d="m957.161 310.844a4.707 4.707 0 0 0 -2.718-3.149l-52.043-22.195a4.244 4.244 0 0 0 -.4-.132c-.066-.027-.136-.048-.21-.073a4.623 4.623 0 0 0 -1.12-.157c-.034 0-.064-.016-.1-.016l-29.523-.068c2.875-7.486 4.729-14.23 4.729-19.175a41.869 41.869 0 1 0 -83.739 0c0 .613.037 1.261.091 1.929l-10.936-4.667a4.712 4.712 0 0 0 -5.569 1.443l-64.125 82.5a4.714 4.714 0 0 0 1.87 7.231l52.046 22.19c.11.05.232.068.346.111s.221.073.333.105a4.665 4.665 0 0 0 1.136.157h.021l68.216.164 51.16 21.816a4.731 4.731 0 0 0 5.574-1.446l64.124-82.5a4.706 4.706 0 0 0 .837-4.068zm-66.224-16.318-56.809 73.09-57.26-.137 36.855-47.415c7.555 13.616 14.565 24.767 16.2 27.345a4.714 4.714 0 0 0 7.958 0c2.61-4.1 18.859-29.972 29.212-52.939zm-57.032-61.1a32.483 32.483 0 0 1 32.443 32.449c0 13.936-20.7 50.8-32.443 70.074-4.378-7.19-10-16.819-15.339-26.8v-.011c-6.7-12.538-12.937-25.619-15.66-35.083-.021-.055-.028-.109-.046-.159a30.716 30.716 0 0 1 -1.395-8.026 32.48 32.48 0 0 1 32.44-32.446zm-53.079 39.81 13.839 5.9c3.074 9.558 8.472 21.034 14.164 31.862l-43.068 55.409-43.073-18.369zm106.152 115.526-43.078-18.369 58.145-74.8 43.075 18.371z" transform="translate(-710.499 -224.002)"/><path d="m790.244 282.012a24 24 0 1 0 -24-24 24.029 24.029 0 0 0 24 24zm0-38.572a14.572 14.572 0 1 1 -14.571 14.572 14.588 14.588 0 0 1 14.571-14.572z" transform="translate(-666.84 -216.162)"/></g></svg>