<svg enable-background="new 0 0 640 340" viewBox="0 0 640 340" xmlns="http://www.w3.org/2000/svg"><text fill="#808080" font-family="'MicrosoftJhengHeiBold'" font-size="45" transform="translate(137 163)">門市</text><text fill="#808080" font-family="'MicrosoftJhengHeiBold'" font-size="45" transform="translate(137 214)">查詢</text><g fill="#949494" transform="translate(256.071 82)"><path d="m246.7 86.8c-.4-1.4-1.4-2.6-2.7-3.1l-52-22.2c-.1-.1-.3-.1-.4-.1s-.1 0-.2-.1c-.4-.1-.7-.2-1.1-.2h-.1l-29.5-.1c2.9-7.5 4.7-14.2 4.7-19.2 0-23.1-18.7-41.9-41.9-41.9s-42 18.9-42 42c0 .6 0 1.3.1 1.9l-10.9-4.7c-2-.8-4.3-.2-5.6 1.4l-64.1 82.6c-1.6 2.1-1.2 5 .8 6.6.3.2.7.5 1 .6l52 22.2c.1 0 .2.1.3.1s.2.1.3.1c.4.1.8.2 1.1.2l68.5.1 51.2 21.8c2 .8 4.3.2 5.6-1.4l64.1-82.5c.8-1.1 1.1-2.6.8-4.1zm-66.3-16.3-56.8 73.1-57.3-.1 36.9-47.4c7.6 13.6 14.6 24.8 16.2 27.3 1.4 2.2 4.3 2.8 6.5 1.5.6-.4 1.1-.9 1.5-1.5 2.6-4.1 18.9-30 29.2-52.9zm-57-61.1c17.9 0 32.4 14.5 32.4 32.4 0 13.9-20.7 50.8-32.4 70.1-4.4-7.2-10-16.8-15.3-26.8-6.7-12.5-12.9-25.6-15.7-35.1 0-.1 0-.1 0-.2-.8-2.6-1.3-5.3-1.4-8 0-17.8 14.5-32.4 32.4-32.4zm-53.1 39.8 13.8 5.9c3.1 9.6 8.5 21 14.2 31.9l-43.1 55.4-43-18.4zm106.2 115.6-43.1-18.4 58.1-74.8 43.1 18.4z"/><path d="m123.4 65.8c13.3 0 24-10.7 24-24s-10.7-24-24-24-24 10.7-24 24 10.8 24 24 24zm0-38.5c8 0 14.6 6.5 14.6 14.6 0 8-6.5 14.6-14.6 14.6-8 0-14.6-6.5-14.6-14.6 0-8.1 6.6-14.6 14.6-14.6z"/></g></svg>