<svg enable-background="new 0 0 640 340" viewBox="0 0 640 340" xmlns="http://www.w3.org/2000/svg"><text fill="#808080" font-family="'MicrosoftJhengHeiBold'" font-size="45" transform="translate(141.999 163)">當期</text><text fill="#808080" font-family="'MicrosoftJhengHeiBold'" font-size="45" transform="translate(141.999 214)">型錄</text><g fill="#949494"><path d="m-421.5-1746.9c-.4-.4-.7-.8-1.1-1.2-.4-.4-.9-.8-1.3-1.2l-1.5-1.1-10.5-7.9-9-6.7-10.5-7.9-1.1-.8c.4-.5.7-1 1.1-1.5 2.6-3.8 4.6-8 5.9-12.4.1-.2.1-.4.2-.6.2-.6.3-1.1.5-1.7.2-.7.3-1.3.5-2 .1-.7.3-1.4.4-2 4.2-25.9-13.4-50.3-39.3-54.5-15.1-2.5-30.4 2.5-41.2 13.3-.2.2-.3.3-.5.5-4.6 4.8-8.2 10.5-10.5 16.7-.4 1.1-.8 2.2-1.1 3.3-.1.5-.3 1-.4 1.4 0 .2-.1.4-.1.5-.1.6-.3 1.2-.4 1.7 0 .1-.1.3-.1.4-1.6 8.4-.9 17.1 2.1 25.2.1.4.3.7.4 1.1 1 2.5 2.2 5 3.7 7.3.4.7.9 1.4 1.3 2 .1.2.3.4.4.6.6.9 1.3 1.7 2 2.6.9 1.1 1.8 2.1 2.8 3.1l.5.5.8.8.3.2c.2.2.4.4.6.5l.3.3c.2.2.4.3.5.5l.3.3c.2.1.4.3.5.4s.2.2.3.3c.2.1.4.3.6.4l.3.3c.2.2.4.3.6.5l.3.2c.3.2.6.4.9.6.3.2.6.4.9.6l.3.2c.2.1.4.3.7.4.1.1.2.1.3.2.2.1.4.2.6.4l.2.1.2.1c.2.1.4.2.6.3l.4.2c.2.1.4.2.6.3l.4.2c.2.1.4.2.7.3l.3.2c.3.1.6.3.9.4h.1c.3.2.7.3 1 .5l.2.1c.3.1.5.2.8.3l.4.1c.2.1.4.2.7.3l.4.1c.2.1.4.2.6.2.1 0 .3.1.4.1.2.1.4.2.7.2.1 0 .3.1.4.1.2.1.5.1.7.2.1 0 .2.1.3.1l.9.3h.2c.4.1.7.2 1.1.3l.2.1c.3.1.5.1.8.2l.4.1c.2.1.5.1.7.1.1 0 .3.1.4.1.2 0 .4.1.7.1l.4.1c.2 0 .4.1.7.1l.4.1c.2 0 .5.1.7.1h.4c.3 0 .6.1.8.1h.2c.4 0 .7.1 1.1.1h.2c.3 0 .6 0 .8.1h.4.7.4.7.2.1 1.5.2c.5 0 1 0 1.5-.1h.1c.5 0 1-.1 1.5-.1h.3c.5-.1 1-.1 1.5-.2h.3c.5-.1 1-.2 1.5-.3h.1c.5-.1 1-.2 1.5-.3h.2c.5-.1 1-.2 1.5-.4l.3-.1c.5-.1 1-.3 1.5-.4l.2-.1c.5-.1 1-.3 1.5-.5h.1c.5-.2 1-.4 1.5-.5l.3-.1c.5-.2.9-.4 1.4-.6l.3-.1c.5-.2 1-.4 1.4-.6l.2-.1c.5-.2.9-.4 1.4-.7l.2-.1c.5-.2.9-.5 1.4-.8l.3-.2c.4-.2.7-.4 1.1-.6.1-.1.2-.1.3-.2.1 0 .2-.1.2-.1.5-.3.9-.6 1.4-.9l1 1.2 8.5 10.5 6.6 8.1 8.5 10.5.4.5c.2.2.4.5.7.7.1.1.1.1.2.2.2.2.3.3.5.5.1.1.2.2.3.2.2.1.3.3.5.4.1.1.2.1.3.2.2.2.4.3.6.5.1 0 .1.1.2.2.3.2.5.4.8.6.1 0 .1.1.2.1.2.1.4.3.6.4.1.1.2.1.3.2.2.1.4.2.5.3s.2.1.3.2c.2.1.4.2.6.3.1 0 .2.1.3.1.3.1.5.2.8.3h.1c.3.1.6.2.9.3.1 0 .2.1.3.1.2.1.4.1.6.2.1 0 .2.1.3.1.2.1.4.1.6.2l.3.1c.2 0 .4.1.6.1h.2c.3.1.6.1.9.1h.2c.2 0 .5 0 .7.1h.3.6.4.2.6.1c.2 0 .5 0 .7-.1h.2c.2 0 .3 0 .5-.1h.2c.2 0 .3-.1.5-.1h.2c.2-.1.4-.1.6-.2h.1c.2-.1.4-.1.6-.2.1 0 .1-.1.2-.1.1-.1.3-.1.4-.2l.2-.1c.2-.1.3-.1.5-.2 0 0 .1 0 .1-.1.2-.1.4-.2.6-.3.1 0 .1-.1.1-.1.1-.1.3-.2.4-.3.1 0 .1-.1.2-.1.1-.1.3-.2.4-.3.1 0 .1-.1.2-.1.2-.1.3-.3.5-.4 4.5-4.3 3.7-12.6-1.6-18.6zm-47-29.9c-.2.3-.5.5-.7.8-1.9 1.9-4.1 3.6-6.4 5.1-.4.3-.8.5-1.2.7-.1.1-.3.1-.4.2-.3.2-.6.3-.9.5-.2.1-.3.2-.5.2-.3.1-.6.3-.8.4s-.3.1-.5.2c-.3.1-.6.3-.9.4-.1.1-.3.1-.4.2-.4.2-.9.3-1.3.5-.1 0-.1 0-.2.1-.4.1-.8.3-1.2.4-.2 0-.3.1-.5.1-.3.1-.6.2-.9.3l-.5.1c-.3.1-.6.1-.9.2-.2 0-.3.1-.5.1-.3.1-.7.1-1 .2-.1 0-.3.1-.4.1-.5.1-.9.2-1.4.2-.1 0-.2 0-.3 0-.4 0-.7.1-1.1.1-.2 0-.3 0-.5 0-.3 0-.6 0-.9.1h-.5c-.3 0-.6 0-.9 0-.2 0-.3 0-.5 0-.1 0-.1 0-.2 0-.3 0-.7 0-1 0h-.2c-.4 0-.9 0-1.3-.1-.4 0-.9-.1-1.3-.1h-.2c-.4 0-.9-.1-1.3-.2h-.2c-.4-.1-.9-.1-1.3-.2h-.1c-.4-.1-.8-.2-1.3-.3h-.2c-.4-.1-.8-.2-1.3-.3l-.2-.1c-.4-.1-.8-.3-1.3-.4l-.2-.1c-.4-.1-.8-.3-1.2-.4h-.1c-.4-.2-.8-.3-1.3-.5l-.2-.1c-.4-.2-.8-.4-1.2-.5l-.2-.1c-.4-.2-.8-.4-1.2-.6-.4-.2-.8-.4-1.2-.7l-.2-.1c-.4-.2-.8-.5-1.1-.7-.1 0-.1-.1-.2-.1-.4-.2-.8-.5-1.1-.8l-.1-.1c-.4-.3-.7-.5-1.1-.8l-.1-.1c-.4-.3-.7-.6-1.1-.9-.1-.1-.1-.1-.2-.2-.3-.3-.7-.6-1-.9l-.2-.2c-.3-.3-.7-.7-1-1-14.1-14.1-14.2-37.1 0-51.2l1.3-1.3c9.8-8.8 23.5-11.7 36-7.4.4.1.7.3 1.1.4.8.3 1.6.7 2.4 1 .7.3 1.3.6 2 1 .2.1.5.3.7.4.5.3 1 .6 1.5.9.3.2.7.4 1 .7.2.1.3.2.5.3.4.3.7.5 1.1.8 1.3 1 2.5 2 3.6 3.2 1.1 1.1 2 2.2 3 3.4.2.2.3.4.5.7.4.6.9 1.2 1.3 1.8.6.9 1.1 1.8 1.6 2.7.2.3.3.6.5 1 5.9 11.9 4.8 26.1-2.8 36.9-.3.4-.6.9-.9 1.3-.9 1-1.7 1.9-2.6 2.8z" transform="translate(914.367 1970)"/><path d="m386.8 227.6c1.8-3.8 5.2-6.7 9.3-7.7-6.1-2.8-11.7-6.7-16.5-11.5-1.6-1.6-3.1-3.3-4.6-5.1v10.1c-4.1-2.9-9-4.4-14-4.4h-59.6v-103.5h59.5c7.7 0 14 6.3 14 14v14c3-3.9 6.6-7.4 10.5-10.3v-3.7c0-7.7 6.3-14 14-14h59.5v22.3l.6.6c4 4 7.3 8.5 9.9 13.4v-17.6h9v76.2l10.5 7.9v-89.4c0-2.9-2.4-5.3-5.3-5.3h-14.2v-13.3c0-2.9-2.4-5.3-5.3-5.3h-64.8c-4.7 0-15.2.6-18.9 9.4-5.5-9.4-17.1-9.4-19.5-9.4h-64.7c-2.9 0-5.3 2.4-5.3 5.3v13.4h-14.2c-2.9 0-5.3 2.3-5.3 5.2v114c0 2.9 2.4 5.3 5.3 5.3h182.4l-8.5-10.5zm-104.9 0v-103.4h9v90c0 2.9 2.4 5.3 5.3 5.3h64.8c5.5 0 10.4 3.2 12.7 8.1z"/></g></svg>