<svg height="41" viewBox="0 0 40 41" width="40" xmlns="http://www.w3.org/2000/svg"><path d="m0 0h40v41h-40z" fill="#fff"/><g fill="#474645" stroke="#fff"><path d="m844.29 82.014h-8.127a1.156 1.156 0 0 0 0 2.313h8.127a1.156 1.156 0 1 0 0-2.313z" transform="translate(-820.8 -73.576)"/><path d="m818.234 101.878h-15.484a1.157 1.157 0 0 0 0 2.313h15.483a1.157 1.157 0 0 0 0-2.313z" transform="translate(-794.744 -89.066)"/><path d="m818.234 121.742h-15.484a1.157 1.157 0 0 0 0 2.313h15.483a1.157 1.157 0 0 0 0-2.313z" transform="translate(-794.744 -104.557)"/><path d="m818.234 141.607h-15.484a1.157 1.157 0 0 0 0 2.313h15.483a1.157 1.157 0 0 0 0-2.313z" transform="translate(-794.744 -120.048)"/><path d="m818.234 161.471h-15.484a1.157 1.157 0 0 0 0 2.313h15.483a1.157 1.157 0 0 0 0-2.313z" transform="translate(-794.744 -135.538)"/><path d="m807.739 52.953h-.677v-.677a3.224 3.224 0 0 0 -3.22-3.22h-15.572l-8.7 8.7v22.4a3.224 3.224 0 0 0 3.22 3.22h.677v.677a3.224 3.224 0 0 0 3.22 3.22h21.056a3.224 3.224 0 0 0 3.22-3.22v-27.88a3.224 3.224 0 0 0 -3.224-3.22zm-20.146.047v4.078h-4.078zm-5.714 27.152v-20.752h6.87a1.156 1.156 0 0 0 1.156-1.156v-6.87h13.937a.908.908 0 0 1 .907.907v27.88a.908.908 0 0 1 -.907.907h-21.056a.908.908 0 0 1 -.907-.912zm26.768 3.9a.908.908 0 0 1 -.907.907h-21.056a.908.908 0 0 1 -.907-.907v-.677h18.066a3.224 3.224 0 0 0 3.22-3.22v-24.889h.677a.908.908 0 0 1 .907.907z" transform="translate(-777.566 -47.874)"/></g></svg>