<svg xmlns="http://www.w3.org/2000/svg" width="23.229" height="22.132" viewBox="0 0 23.229 22.132">
  <g id="TYPE_A" data-name="TYPE A" transform="translate(-452.088 -243.857)">
    <g id="Group_1888" data-name="Group 1888" transform="translate(452.088 243.857)">
      <path id="Path_626" data-name="Path 626" d="M475.316,253.282c0-5.2-5.21-9.425-11.614-9.425s-11.614,4.228-11.614,9.425c0,4.659,4.132,8.561,9.713,9.3.378.082.893.249,1.023.573a2.383,2.383,0,0,1,.038,1.05s-.136.82-.166.994c-.05.293-.233,1.148,1.006.626a37.488,37.488,0,0,0,9.125-6.743h0a8.385,8.385,0,0,0,2.489-5.8" transform="translate(-452.088 -243.857)" fill="#fff"/>
      <g id="Group_1887" data-name="Group 1887" transform="translate(3.81 6.914)">
        <path id="Path_627" data-name="Path 627" d="M484.027,269.865h-.815a.226.226,0,0,0-.226.226v5.061a.226.226,0,0,0,.226.226h.815a.226.226,0,0,0,.226-.226v-5.061a.226.226,0,0,0-.226-.226" transform="translate(-478.583 -269.865)" fill="#00b900"/>
        <path id="Path_628" data-name="Path 628" d="M495.321,269.865h-.815a.226.226,0,0,0-.226.226V273.1l-2.319-3.132-.018-.023,0,0-.014-.014,0,0-.012-.01-.006,0-.012-.008-.007,0-.012-.007-.007,0-.013-.006-.008,0-.013,0-.008,0-.013,0h-.01l-.012,0h-.834a.226.226,0,0,0-.226.226v5.061a.226.226,0,0,0,.226.226h.815a.226.226,0,0,0,.226-.226v-3.006l2.322,3.136a.224.224,0,0,0,.057.056l0,0,.014.009.006,0,.011.005.011,0,.007,0,.015,0h0a.22.22,0,0,0,.058.008h.815a.226.226,0,0,0,.226-.226v-5.061a.226.226,0,0,0-.226-.226" transform="translate(-484.27 -269.865)" fill="#00b900"/>
        <path id="Path_629" data-name="Path 629" d="M469.9,274.11h-2.214v-4.019a.226.226,0,0,0-.226-.226h-.815a.226.226,0,0,0-.226.226v5.06h0a.224.224,0,0,0,.063.156l0,0,0,0a.224.224,0,0,0,.156.063H469.9a.226.226,0,0,0,.226-.226v-.815a.226.226,0,0,0-.226-.226" transform="translate(-466.421 -269.865)" fill="#00b900"/>
        <path id="Path_630" data-name="Path 630" d="M515.307,271.132a.226.226,0,0,0,.226-.226v-.815a.226.226,0,0,0-.226-.226h-3.255a.226.226,0,0,0-.157.064l0,0,0,0a.225.225,0,0,0-.063.156h0v5.06h0a.225.225,0,0,0,.063.156l0,0,0,0a.225.225,0,0,0,.156.063h3.255a.226.226,0,0,0,.226-.226v-.815a.226.226,0,0,0-.226-.226h-2.214v-.855h2.214a.226.226,0,0,0,.226-.226v-.815a.226.226,0,0,0-.226-.227h-2.214v-.855Z" transform="translate(-499.756 -269.865)" fill="#00b900"/>
      </g>
    </g>
  </g>
</svg>
