<svg height="24" viewBox="0 0 24 24" width="24" xmlns="http://www.w3.org/2000/svg"><path d="m.001 0h24v24h-24z" fill="#fff"/><rect fill="#747474" height="18.723" rx="1.217" width="19.575" x="1.978" y="4.032"/><path d="m0 0h17.237a0 0 0 0 1 0 0v11.347a.695.695 0 0 1 -.695.695h-15.703a.839.839 0 0 1 -.839-.842v-11.2a0 0 0 0 1 0 0z" fill="#fff" transform="translate(3.147 9.612)"/><g fill="#747474"><rect height="2.337" rx=".347" width="2.337" x="5.34" y="10.901"/><rect height="2.337" rx=".347" width="2.337" x="8.845" y="10.901"/><rect height="2.337" rx=".347" width="2.337" x="12.35" y="10.901"/><rect height="2.337" rx=".347" width="2.337" x="15.855" y="10.901"/><rect height="2.337" rx=".347" width="2.337" x="5.34" y="14.406"/><rect height="2.337" rx=".347" width="2.337" x="12.35" y="14.406"/><rect height="2.337" rx=".347" width="2.337" x="15.855" y="14.406"/><rect height="2.337" rx=".347" width="2.337" x="5.34" y="18.028"/><rect height="2.337" rx=".347" width="2.337" x="8.845" y="18.028"/><rect height="2.337" rx=".347" width="2.337" x="12.35" y="18.028"/><rect height="2.337" rx=".347" width="2.337" x="8.845" y="14.392"/></g><circle cx="6.678" cy="5.949" fill="#fff" r="1.187"/><rect fill="#747474" height="5.01" rx=".627" width="1.534" x="5.91" y="1.714"/><circle cx="16.499" cy="5.949" fill="#fff" r="1.187"/><rect fill="#747474" height="5.01" rx=".627" width="1.534" x="15.731" y="1.714"/></svg>