<svg height="40" viewBox="0 0 40 40" width="40" xmlns="http://www.w3.org/2000/svg"><g><circle cx="20" cy="20" fill="#aaa" r="20"/><path d="m242.525 273.7-.094-.345-.056-.325c-.812-6.157 4.165-10.568 9.729-11.7a14.881 14.881 0 0 1 11.672 2.156 9.719 9.719 0 0 1 4.653 7.542 11.293 11.293 0 0 1 -.053 2 4.438 4.438 0 0 1 -.447 1.588l-.011.031a23.437 23.437 0 0 1 -1.913 3.02 36.394 36.394 0 0 1 -10.47 7.935c-.345.188-1.275.728-1.256.16q.07-1.417.141-2.834c-.145-.752-.782-.789-1.34-.88a13.305 13.305 0 0 1 -9.659-6.035l.009.014-.088-.2-.025-.057-.237-.42.009.014-.27-.713-.007-.02z" fill="#fbfdfb" transform="translate(-235.506 -253.256)"/><g fill="#aaa"><path d="m248.753 609.044q.144.465.288.93-.141-.464-.288-.93z" transform="translate(-241.734 -588.604)"/><path d="m256.832 635.039.27.713z" transform="translate(-249.518 -613.648)"/><path d="m264 654.164.237.42z" transform="translate(-256.421 -632.074)"/><path d="m244.675 590.73.056.325z" transform="translate(-237.805 -570.959)"/><path d="m271.141 667.218.088.2z" transform="translate(-263.303 -644.651)"/><path d="m561.924 470.463c0 .893.057 1.791-.03 2.675-.031.318.026.888-.633.859-.566-.025-.725-.351-.723-.865.008-1.591-.022-3.183.026-4.773.009-.291.156-.76.5-.817a.949.949 0 0 1 .813.361c.827 1.048 1.6 2.139 2.546 3.428 0-1.069.007-1.911 0-2.753-.006-.535.022-1.086.717-1.086.65 0 .682.527.68 1.031 0 1.508.026 3.016-.024 4.522-.011.327-.033.793-.456.966a1.055 1.055 0 0 1 -.941-.51c-.812-1.012-1.558-2.077-2.329-3.122-.096-.1-.143-.046-.146.084z" transform="translate(-542.118 -452.227)"/><path d="m731.4 467.819v1.209c.509 0 1.009.028 1.485.028.514 0 1.047 0 1.039.7-.007.589-.472.708-.994.694-.5-.013-.991 0-1.518 0v1.192c.557 0 1.135.008 1.7.031.412.017.87.056.87.668 0 .587-.563.613-.879.655a17.549 17.549 0 0 1 -2.257.032c-.593 0-.85-.3-.846-.886q.018-2.387 0-4.774c-.006-.63.258-.933.9-.923a21.6 21.6 0 0 1 2.257.033c.3.036.772.08.789.632.016.493-.289.726-.79.719-.562-.016-1.116-.01-1.756-.01z" transform="translate(-705.381 -451.196)"/><path d="m370.967 472.2c.615 0 1.171.017 1.709.03.437.011.865.1.865.663 0 .594-.553.619-.866.661a18.717 18.717 0 0 1 -2.252.034.766.766 0 0 1 -.875-.867c0-1.615-.037-3.232.03-4.845.013-.3-.087-.817.675-.864.72.016.665.564.681.862.073 1.409.033 2.826.033 4.326z" transform="translate(-358.101 -451.763)"/><path d="m497.536 470.788c0 .724-.007 1.448 0 2.172.006.505-.032 1.015-.677 1.032s-.716-.473-.713-.991q.013-2.3 0-4.594c0-.495.091-.941.674-.949.638-.009.725.471.717.992-.009.779-.001 1.558-.001 2.338z" transform="translate(-480.083 -452.193)"/></g><path d="m29.671 11.309-3.595-3.595" fill="none"/><path d="m868.355 359.378.9.9a10.685 10.685 0 0 0 -.9-.9z" fill="#fbfdfb" transform="translate(-838.682 -348.066)"/></g></svg>