<svg height="18.193" viewBox="0 0 24.415 18.193" width="24.415" xmlns="http://www.w3.org/2000/svg"><path d="m23.745 81.2h-1.68v-1.108a.37.37 0 0 0 -.283-.36 13.906 13.906 0 0 0 -5.2-.212 9.135 9.135 0 0 0 -4.528 2.256 9.135 9.135 0 0 0 -4.525-2.256 13.908 13.908 0 0 0 -5.2.212.37.37 0 0 0 -.283.36v1.108h-1.676a.37.37 0 0 0 -.37.37v15.28a.37.37 0 0 0 .563.316 13.774 13.774 0 0 1 6-1.8 18.048 18.048 0 0 1 5.381.6h.009.017l.025.005h.017.026.043.019.024.02l.022-.006h.008a18.029 18.029 0 0 1 5.382-.6 13.773 13.773 0 0 1 6 1.8.37.37 0 0 0 .563-.316v-15.281a.37.37 0 0 0 -.374-.368zm-7.014-.952a12.914 12.914 0 0 1 4.594.144v12.584a21.762 21.762 0 0 0 -4.493-.094 10.7 10.7 0 0 0 -4.4 1.586v-12.013a8.341 8.341 0 0 1 4.299-2.209zm-13.941.143a12.908 12.908 0 0 1 4.594-.144 8.34 8.34 0 0 1 4.3 2.208v12.013a10.7 10.7 0 0 0 -4.4-1.586 13.368 13.368 0 0 0 -1.584-.082 27.163 27.163 0 0 0 -2.915.177zm3.755 14.237a13.992 13.992 0 0 0 -5.805 1.593v-14.283h1.309v11.456a.37.37 0 0 0 .421.367 22.9 22.9 0 0 1 4.724-.144 10.03 10.03 0 0 1 3.948 1.383 21.1 21.1 0 0 0 -4.597-.372zm16.829 1.593a13.992 13.992 0 0 0 -5.805-1.593 21.092 21.092 0 0 0 -4.6.376 10.03 10.03 0 0 1 3.948-1.387 22.919 22.919 0 0 1 4.724.144.37.37 0 0 0 .421-.367v-11.456h1.309z" fill="#fff" stroke="#fff" stroke-width=".3" transform="translate(.15 -79.176)"/></svg>