<svg height="55.203" viewBox="0 0 55.202 55.203" width="55.202" xmlns="http://www.w3.org/2000/svg"><g fill="none"><path d="m0 0h55.202v55.202h-55.202z"/><g stroke="#474645" stroke-linecap="round" stroke-linejoin="round" stroke-width="1.7" transform="translate(-1320.562 -2825.163)"><path d="m1362.015 2867.4a1.371 1.371 0 0 1 -2.422.882c-2.932-3.558-8.316-8.686-14.993-8.686h-9.749a9.086 9.086 0 0 1 -9.086-9.086v-1.61a9.086 9.086 0 0 1 9.086-9.087h9.749c6.677 0 12.061-5.128 14.993-8.685a1.37 1.37 0 0 1 2.422.881z"/><path d="m1331.348 2859s.745 6.409 1.2 10.624 2.57 5.523 5.254 5.235c3.232-.348 3.43-2.8 2.987-5.384-.355-2.064-1.782-9.888-1.782-9.888"/><path d="m1365.351 2861.969 3.66 1.893"/><path d="m1365.351 2837.431 3.66-1.893"/><path d="m1366.289 2849.7h4.273"/><path d="m1343.243 2840.203v19.199"/></g></g></svg>