<svg height="55.202" viewBox="0 0 55.202 55.202" width="55.202" xmlns="http://www.w3.org/2000/svg"><g fill="none"><path d="m0 0h55.202v55.202h-55.202z"/><g stroke="#474645" stroke-linecap="round" stroke-linejoin="round" stroke-width="1.665" transform="translate(-1320.562 -2449.71)"><path d="m1341.266 2460.986a.226.226 0 1 0 -.226.226.226.226 0 0 0 .226-.226z"/><path d="m1367.719 2461.284a.226.226 0 1 0 -.226.226.226.226 0 0 0 .226-.226z"/><path d="m1325.364 2497.107h44.579"/><path d="m1325.364 2477.302h4.899v15.645h-4.899z"/><path d="m1365.044 2469.181h4.899v23.766h-4.899z"/><path d="m1338.59 2468.883h4.899v24.064h-4.899z"/><circle cx="3.47" cy="3.47" r="3.47" transform="matrix(.381 -.925 .925 .381 1336.509 2462.874)"/><circle cx="3.47" cy="3.47" r="3.47" transform="matrix(.98715579 -.15976059 .15976059 .98715579 1363.513 2458.413)"/><path d="m1351.817 2476.408h4.899v16.539h-4.899z"/><circle cx="1354.266" cy="2468.511" r="2.086"/><path d="m1329.9 2469.405a2.086 2.086 0 1 0 -2.086 2.086 2.086 2.086 0 0 0 2.086-2.086z"/><path d="m1329.376 2468.026 8.681-5.272"/><path d="m1344.238 2462.335 7.942 4.984"/><path d="m1356.102 2467.52 8.263-4.74"/></g></g></svg>