<svg height="55.203" viewBox="0 0 55.202 55.203" width="55.202" xmlns="http://www.w3.org/2000/svg"><g transform="translate(-1320.562 -2702.234)"><path d="m1320.562 2702.234h55.202v55.202h-55.202z" fill="none"/><path d="m1368.11 2709.525h-30.448a3.418 3.418 0 0 0 -3.414 3.414v4.465h-6.031a3.418 3.418 0 0 0 -3.414 3.414v23.546a5.788 5.788 0 0 0 5.782 5.782h33.851a7.1 7.1 0 0 0 7.088-7.088v-30.119a3.421 3.421 0 0 0 -3.414-3.414zm-33.862 34.844a3.658 3.658 0 1 1 -7.316 0v-23.546a1.291 1.291 0 0 1 1.29-1.29h6.026zm35.153-1.306a4.97 4.97 0 0 1 -4.965 4.964h-29.376a5.75 5.75 0 0 0 1.306-3.658v-31.43a1.292 1.292 0 0 1 1.291-1.29h30.443a1.291 1.291 0 0 1 1.29 1.29l.006 30.124zm-22.2-22.543v-4.555a.756.756 0 0 1 .753-.754h2.788a.754.754 0 1 1 0 1.508h-2.034v.775h1.344a.752.752 0 1 1 0 1.5h-1.344v.775h2.034a.754.754 0 1 1 0 1.507h-2.788a.764.764 0 0 1 -.754-.756zm18.693-1.141a1.85 1.85 0 0 1 -1.8 1.89h-2.013a.754.754 0 1 1 0-1.508h2.013c.159 0 .3-.18.3-.388s-.138-.387-.3-.387h-1.275a1.892 1.892 0 0 1 0-3.78h2.007a.754.754 0 1 1 0 1.508h-2.007a.356.356 0 0 0 -.3.387c0 .207.138.388.3.388h1.275a1.849 1.849 0 0 1 1.806 1.89zm-1.327 5.054h-23.074a1.065 1.065 0 0 0 -1.062 1.062v6.233a1.062 1.062 0 0 0 1.062 1.062h23.074a1.062 1.062 0 0 0 1.062-1.062v-6.228a1.065 1.065 0 0 0 -1.06-1.067zm-1.062 6.233h-20.95v-4.109h20.95zm2.124 6.6a1.065 1.065 0 0 1 -1.062 1.062h-23.074a1.062 1.062 0 0 1 0-2.124h23.074a1.062 1.062 0 0 1 1.064 1.067zm0 5.537a1.065 1.065 0 0 1 -1.062 1.062h-23.074a1.062 1.062 0 1 1 0-2.123h23.074a1.064 1.064 0 0 1 1.064 1.066zm-25.267-22.288v-4.555a.751.751 0 0 1 1.333-.473l2.341 2.9v-2.426a.757.757 0 0 1 .754-.754.749.749 0 0 1 .749.754v4.555a.754.754 0 0 1 -1.338.478l-2.342-2.9v2.427a.749.749 0 1 1 -1.5-.006zm12.519-4.353a.751.751 0 1 1 1.439-.43l.659 2.187.658-2.187a.754.754 0 0 1 1.444 0l.658 2.187.659-2.187a.744.744 0 0 1 .934-.505.752.752 0 0 1 .505.935l-1.381 4.587a.754.754 0 0 1 -1.444 0l-.658-2.193-.659 2.193a.754.754 0 0 1 -1.444 0z" fill="#474645" stroke="#fff" stroke-miterlimit="10" stroke-width=".35"/></g></svg>