<svg height="55.202" viewBox="0 0 55.202 55.202" width="55.202" xmlns="http://www.w3.org/2000/svg"><path d="m0 0h55.202v55.202h-55.202z" fill="none"/><g transform="translate(-1320.562 -2573.896)"><g fill="none" stroke="#474645" stroke-linecap="round" stroke-linejoin="round" stroke-width="1.5"><path d="m1355.507 2596.793-5-6.722h-14.147l-7.1 9.548a17.642 17.642 0 0 0 -3.574 10.52c.014 5.868 3.085 12.909 17.747 12.909 5.893 0 8.292-.117 8.292-.117"/><rect height="2.852" rx=".902" width="17.143" x="1334.864" y="2587.219"/><path d="m1348.359 2580.906-1.377 1.377-.605-.6a4.044 4.044 0 0 0 -5.72 0l-.606.6-1.377-1.377a3.276 3.276 0 0 0 -4.631 0l-1.706 1.706 4.753 4.607h12.854l4.752-4.607-1.706-1.706a3.276 3.276 0 0 0 -4.631 0z"/><path d="m1351.728 2596.791h18.91v26.14h-18.91z"/><path d="m1354.381 2599.446h13.604v2.994h-13.604z"/><path d="m1354.381 2607.081h13.604v13.023h-13.604z"/><path d="m1357.795 2610.294v9.81"/><path d="m1361.183 2607.081v12.75"/><path d="m1364.571 2607.168v12.75"/><path d="m1367.985 2610.249h-13.604"/><path d="m1367.985 2613.637h-13.604"/><path d="m1367.985 2617.026h-13.604"/></g><path d="m1342.379 2612.931a5.091 5.091 0 0 1 -1.012-.178 4.715 4.715 0 0 1 -.844-.281l.014-1.561a7.683 7.683 0 0 0 1.185.358 5.629 5.629 0 0 0 1.321.164 2.284 2.284 0 0 0 1.589-.541 1.774 1.774 0 0 0 .6-1.378 2.354 2.354 0 0 0 -.173-.929 1.7 1.7 0 0 0 -.474-.655 7.608 7.608 0 0 0 -1.365-.748l-1-.465a3.978 3.978 0 0 1 -1.77-1.4 3.624 3.624 0 0 1 -.5-1.952 3.06 3.06 0 0 1 .739-2.045 3.155 3.155 0 0 1 1.686-1.033l.01-1.419h1.615l-.007 1.329a3.81 3.81 0 0 1 1.813.518v1.576a3.885 3.885 0 0 0 -1.031-.473 4.133 4.133 0 0 0 -1.284-.228 1.847 1.847 0 0 0 -1.357.49 1.7 1.7 0 0 0 -.494 1.26 2.052 2.052 0 0 0 .177.861 1.826 1.826 0 0 0 .507.66 7.132 7.132 0 0 0 1.285.726l.778.364a4.634 4.634 0 0 1 1.927 1.508 3.979 3.979 0 0 1 .608 2.286 2.847 2.847 0 0 1 -.816 2.016 3.364 3.364 0 0 1 -2.088 1.061v1.434h-1.631z" fill="#474645"/></g></svg>