<svg height="15.349" viewBox="0 0 12.904 15.349" width="12.904" xmlns="http://www.w3.org/2000/svg"><g fill="#d7003f" stroke="#d7003f" stroke-width=".3" transform="translate(-1133.528 -28.228)"><path d="m1142.042 39.34h-5.491a.335.335 0 1 0 0 .671h5.491a.335.335 0 1 0 0-.671z" transform="translate(-.291 -1.259)"/><path d="m1142.042 36.7h-5.491a.335.335 0 1 0 0 .671h5.491a.335.335 0 1 0 0-.671z" transform="translate(-.291 -.956)"/><path d="m1136.215 34.39a.335.335 0 0 0 .336.335h5.491a.335.335 0 1 0 0-.67h-5.491a.335.335 0 0 0 -.336.335z" transform="translate(-.291 -.652)"/><path d="m1138.837 31.747a.335.335 0 0 0 .335.335h3.171a.335.335 0 0 0 0-.671h-3.171a.335.335 0 0 0 -.335.336z" transform="translate(-.593 -.349)"/><path d="m1146.009 30.582h-.749v.767h.51v11.564h-9.12v-.573h-.766v.812a.527.527 0 0 0 .526.528h9.6a.528.528 0 0 0 .527-.528v-12.043a.527.527 0 0 0 -.528-.527z" transform="translate(-.253 -.253)"/><path d="m1144.331 40.948v-12.048a.527.527 0 0 0 -.527-.527h-7.058a.381.381 0 0 0 -.271.112l-2.685 2.685a.386.386 0 0 0 -.112.271v9.5a.527.527 0 0 0 .528.527h9.6a.527.527 0 0 0 .525-.52zm-7.968-11.262v1.377h-1.377zm7.2 11.022h-9.12v-8.878h2.159a.527.527 0 0 0 .527-.527v-2.16h6.435z"/></g></svg>