<svg height="20" viewBox="0 0 20 20" width="20" xmlns="http://www.w3.org/2000/svg"><path d="m0 0h20v20h-20z" fill="#fff"/><path d="m-782.85 362.631a.628.628 0 0 1 -.33.457 6.594 6.594 0 0 1 -2.838.826 2.666 2.666 0 0 1 -1.2-.263 10 10 0 0 1 -2.228-1.516 17.13 17.13 0 0 1 -4.464-5.887 10.059 10.059 0 0 1 -.911-2.545c-.3-1.436.852-2.978 1.568-3.765a.621.621 0 0 1 .521-.2.609.609 0 0 1 .47.3l2.076 3.405a.243.243 0 0 1 -.03.288l-1.178 1.271a21.282 21.282 0 0 0 2.105 3.075 14.775 14.775 0 0 0 1.686 1.944l1.529-.822a.239.239 0 0 1 .288.047l2.77 2.867a.609.609 0 0 1 .166.518z" opacity=".624" stroke="#000" stroke-width=".5" transform="translate(798.373 -347.231)"/></svg>