<svg height="12.699" viewBox="0 0 12.769 12.699" width="12.769" xmlns="http://www.w3.org/2000/svg"><path d="m1077.262 43.027c-.036-.041-.074-.082-.114-.12-.042-.041-.087-.081-.134-.119l-.149-.112-1.073-.806-.914-.686-1.073-.806-.108-.082c.037-.051.073-.1.108-.155a4.816 4.816 0 0 0 .6-1.266c.007-.021.013-.041.019-.062.017-.058.033-.117.048-.175s.033-.138.048-.207.027-.138.038-.208a4.844 4.844 0 0 0 -8.206-4.2l-.051.053a4.816 4.816 0 0 0 -1.073 1.707c-.041.111-.077.223-.109.336-.014.049-.027.1-.039.147l-.013.055c-.015.059-.027.119-.04.179l-.008.044a4.864 4.864 0 0 0 .21 2.572c.013.037.027.074.042.111a4.812 4.812 0 0 0 .373.748q.065.106.135.208l.042.061c.064.089.131.178.2.264q.132.162.281.316l.051.052.084.082.027.025.058.054.033.029.054.048.035.03.054.045.036.029.056.045.034.027.062.047.03.022.087.062h.005l.095.064.027.017.068.044.034.021.063.038.017.01.021.013.061.035.038.021.063.034.036.019.069.035.032.016.091.044h.01l.1.047.025.011.078.033.036.014.068.027.039.015.067.024.04.014.067.023.039.012.072.023.034.01q.045.014.09.025h.017l.108.028.025.006.083.019.037.008.072.015.041.008.068.013.042.007.069.011.042.006.072.009h.038l.085.009h.024l.111.009h.024l.086.006h.039.072.148.154.022l.154-.008h.01l.157-.014h.028l.152-.019h.028l.156-.026h.013c.05-.009.1-.019.15-.031h.022l.151-.037.031-.008.149-.042.025-.008c.05-.015.1-.031.149-.048h.007c.05-.017.1-.036.151-.055l.027-.011c.048-.019.1-.038.144-.059l.029-.012c.048-.021.1-.043.146-.066l.015-.007.14-.069.018-.01.141-.077.027-.016c.037-.021.072-.042.108-.064l.029-.018.023-.014c.048-.03.095-.061.142-.092l.1.125.867 1.073.67.829.867 1.073.042.052c.022.025.044.05.068.074l.022.023.049.048.026.025.049.044.026.022c.019.016.038.031.058.046l.02.016c.026.019.052.039.079.057l.018.012.063.041.028.017.056.032.031.016.058.03.028.013.078.034h.008l.088.033.026.009.063.02.032.009.059.016.031.008.064.013.025.005.089.013h.016l.073.007h.03.059.064.058.012l.069-.007h.019l.05-.008h.023l.048-.011h.02l.065-.019h.007l.057-.02.021-.008.044-.018.021-.009.048-.023.014-.007.059-.034.016-.009.043-.028.019-.014.039-.029.017-.014c.018-.014.036-.029.053-.046a1.391 1.391 0 0 0 -.079-1.957zm-4.792-3.049-.075.079a3.647 3.647 0 0 1 -.655.518c-.042.027-.084.052-.127.076l-.042.023-.089.048-.048.025-.086.042-.049.023-.093.04-.041.017q-.067.027-.135.052l-.018.007-.118.039-.047.014-.092.026-.052.014-.09.022-.051.012-.1.02-.04.008c-.047.008-.093.016-.14.022h-.028l-.113.012h-.049l-.093.007h-.053-.092-.072c-.035 0-.07 0-.1 0h-.023c-.045 0-.09 0-.135-.007l-.137-.013h-.023l-.131-.018h-.025l-.134-.024h-.01c-.043-.008-.086-.018-.129-.028h-.018c-.044-.011-.087-.022-.13-.034l-.025-.007c-.043-.012-.086-.026-.128-.039l-.018-.006-.126-.045h-.008c-.043-.016-.086-.033-.128-.051l-.022-.009c-.041-.018-.082-.036-.123-.056l-.021-.01-.125-.062c-.041-.022-.081-.044-.12-.067l-.018-.01q-.059-.034-.117-.072l-.022-.014-.114-.077-.013-.01c-.037-.026-.074-.053-.11-.08l-.01-.008-.109-.087-.02-.017-.1-.092-.017-.016c-.035-.033-.071-.067-.105-.1a3.693 3.693 0 0 1 0-5.223c.044-.044.089-.087.135-.129a3.689 3.689 0 0 1 3.672-.756c.037.012.075.026.112.04.084.032.167.067.249.1.067.031.134.064.2.1l.072.04c.053.03.1.062.156.094.034.022.068.044.1.067l.046.032c.037.026.074.053.11.081a3.669 3.669 0 0 1 .674.668l.053.069c.045.061.088.123.129.186.059.09.113.183.164.278.017.032.034.064.05.1a3.694 3.694 0 0 1 -.287 3.765c-.031.044-.062.087-.094.129q-.112.147-.239.282z" fill="#fff" transform="translate(-1064.937 -32.602)"/></svg>