<svg height="20" viewBox="0 0 20 20" width="20" xmlns="http://www.w3.org/2000/svg"><path d="m0 0h20v20h-20z" fill="#fff"/><g opacity=".624" transform="translate(2.5 2.5)"><path d="m-828.707 432.09a7.276 7.276 0 0 1 -7.269-7.268 7.277 7.277 0 0 1 7.269-7.269 7.277 7.277 0 0 1 7.268 7.269 7.276 7.276 0 0 1 -7.268 7.268zm0 0" transform="translate(835.976 -417.553)"/><path d="m-815.056 429.66v-3.691a.8.8 0 0 0 -.852-.747.8.8 0 0 0 -.852.747v3.931a.307.307 0 0 0 0 .035.692.692 0 0 0 .246.564l3.169 2.778a.937.937 0 0 0 1.2 0 .682.682 0 0 0 0-1.055zm0 0" fill="#fff" transform="translate(823.023 -422.421)"/></g></svg>